#tb 0: 1/25
#media_type 0: video
#codec_id 0: rawvideo
#dimensions 0: 1280x720
#sar 0: 0/1
0,          0,          0,        1,  2764800, 0xcc4df07d
0,          1,          1,        1,  2764800, 0x85f9e6d4
0,          2,          2,        1,  2764800, 0x23ffe90d
0,          3,          3,        1,  2764800, 0xf0a6d453
0,          4,          4,        1,  2764800, 0x913a6392
0,          5,          5,        1,  2764800, 0xcc5f9736
0,          6,          6,        1,  2764800, 0x43f9f9ce
0,          7,          7,        1,  2764800, 0xc874b44e
0,          8,          8,        1,  2764800, 0x83b665e6
0,          9,          9,        1,  2764800, 0x5ea2e31e
